<svg width="37" height="37" viewBox="0 0 37 37" fill="none" xmlns="http://www.w3.org/2000/svg">
<path d="M28.6719 8H28.6937M9.75 36H27.25C32.0825 36 36 32.0825 36 27.25V9.75C36 4.91751 32.0825 1 27.25 1H9.75C4.91751 1 1 4.91751 1 9.75V27.25C1 32.0825 4.91751 36 9.75 36ZM26.7031 18.5C26.7031 23.0305 23.0305 26.7031 18.5 26.7031C13.9695 26.7031 10.2969 23.0305 10.2969 18.5C10.2969 13.9695 13.9695 10.2969 18.5 10.2969C23.0305 10.2969 26.7031 13.9695 26.7031 18.5Z" stroke="#E32C72" stroke-width="2" stroke-linecap="round" stroke-linejoin="round"/>
</svg>