<svg class="icon-shadow" width="39" height="39" viewBox="0 0 39 39" fill="none" xmlns="http://www.w3.org/2000/svg">
<path d="M38 18.4117C38 8.79548 30.2045 1 20.5884 1M22.7645 9.98006C25.824 10.7674 28.2326 13.176 29.0199 16.2354M26.6292 26.3177L28.2924 24.1001C28.8724 23.3268 29.9223 23.079 30.7869 23.5112L36.6334 26.4345C37.4401 26.8379 37.877 27.7312 37.7002 28.6156L36.1448 36.3922C35.9579 37.3271 35.136 38.0069 34.1839 37.9573C16.9141 37.0585 1.94149 22.0858 1.04268 4.81594C0.993125 3.86386 1.67292 3.04201 2.60777 2.85504L10.3843 1.29972C11.2687 1.12284 12.1621 1.55977 12.5654 2.36646L15.4887 8.21305C15.921 9.07758 15.6731 10.1275 14.8999 10.7075L12.6823 12.3707C12.1787 12.7484 11.8636 13.3459 12.02 13.9557C13.1318 18.2908 20.7092 25.8681 25.0442 26.9799C25.654 27.1363 26.2515 26.8213 26.6292 26.3177Z" stroke="#E32C72" stroke-width="2" stroke-linecap="round" stroke-linejoin="round"/>
</svg>